<svg width="42" height="42" viewBox="0 0 42 42" fill="none" xmlns="http://www.w3.org/2000/svg">
<circle cx="21" cy="21" r="20.5" stroke="white"/>
<path d="M19.4798 11.9454C19.4798 11.9454 19.4348 12.0119 19.3449 12.1617C19.2699 12.3114 19.15 12.5111 19.0601 12.8273C18.9701 13.1268 18.8952 13.5427 18.9701 14.0586C19.0151 14.3082 19.105 14.591 19.2849 14.8572C19.3299 14.9238 19.3749 14.9904 19.4198 15.0403C19.4498 15.0736 19.4648 15.1068 19.4948 15.1235L19.5398 15.1734H19.5548V15.2067C19.5398 15.2067 19.5847 15.2233 19.5847 15.2233L19.6147 15.2566C19.6147 15.2566 19.6147 15.2566 19.6597 15.2899C19.7047 15.3231 19.7646 15.3564 19.7946 15.3897C19.8696 15.4396 19.9595 15.4729 20.0344 15.5062C20.664 15.7558 21.2187 15.7058 21.7883 15.6892C22.343 15.6393 22.9126 15.5561 23.4672 15.4729C23.7371 15.423 24.0219 15.3897 24.2917 15.3398C24.5615 15.3065 24.8314 15.2732 25.0862 15.2399C25.341 15.2233 25.5809 15.2233 25.7907 15.2399C25.9856 15.2566 26.1205 15.3231 26.1355 15.3398C26.1355 15.3398 26.1355 15.3398 26.1355 15.3564C26.1355 15.3564 26.1355 15.3897 26.1355 15.3231V15.3398V15.4063L26.1655 15.4396C26.1955 15.5561 26.1955 15.606 26.1655 15.7058C26.1355 15.8057 26.0606 15.9554 25.9406 16.1218C25.8057 16.2882 25.6258 16.4546 25.446 16.6376C25.0562 16.9704 24.6065 17.3032 24.1868 17.6193C23.7521 17.9521 23.3323 18.2683 22.9426 18.651C22.7477 18.8506 22.5678 19.0503 22.4029 19.3165V19.3498C22.4029 19.3498 22.4029 19.3665 22.4029 19.3831V19.4164L22.343 19.4996C22.313 19.5661 22.283 19.6493 22.253 19.7159C22.208 19.849 22.1631 19.9655 22.1481 20.0986C22.0581 20.5978 22.1031 20.9971 22.1481 21.2966C22.208 21.6128 22.283 21.8457 22.343 21.9955C22.4029 22.1452 22.4479 22.2284 22.4479 22.2284C22.4479 22.2284 22.4479 22.1452 22.4779 21.9788C22.4929 21.8124 22.5378 21.5795 22.5978 21.3132C22.6578 21.047 22.7627 20.7142 22.9276 20.4314C23.1075 20.1319 23.3023 20.0154 23.6771 19.8157C24.0369 19.6327 24.4866 19.4497 24.9813 19.2333C25.4759 19.017 26.0006 18.7841 26.5552 18.418C26.8401 18.235 27.1249 18.0187 27.4097 17.7358C27.6945 17.453 27.9943 17.0703 28.1742 16.5544C28.3691 16.0386 28.414 15.3897 28.2791 14.8572L28.2492 14.7408L28.2192 14.6576V14.591L28.1742 14.5245V14.4745C28.0993 14.3248 28.0393 14.1917 27.9643 14.0419C27.8144 13.7591 27.5896 13.5095 27.3497 13.3264C27.1099 13.1434 26.8551 13.0436 26.6302 12.9604C26.3904 12.8938 26.1805 12.8605 25.9856 12.8439C25.5809 12.8106 25.2211 12.8439 24.8913 12.8938C24.5615 12.9437 24.2467 13.0103 23.9469 13.0935C23.6471 13.1767 23.3623 13.2599 23.0775 13.3597C22.5228 13.5427 22.0132 13.7258 21.5485 13.8755C21.3086 13.9587 21.0988 14.0086 20.8889 14.0586C20.694 14.1085 20.5141 14.1251 20.3792 14.1251H20.3043C20.3043 14.1251 20.2893 14.1251 20.2743 14.1251H20.2293V14.1085C20.2293 14.1085 20.2743 14.1418 20.2443 14.1085H20.2143C20.2143 14.1085 20.1844 14.0752 20.1694 14.0752C20.1394 14.0586 20.1094 14.0419 20.0794 14.0253C19.9595 13.9587 19.8696 13.8423 19.7946 13.7091C19.6297 13.4429 19.5548 13.1268 19.5248 12.8439C19.4948 12.561 19.4798 12.3281 19.4798 12.1617C19.4798 11.9953 19.4798 11.9121 19.4798 11.9121V11.9454Z" fill="white"/>
<path d="M19.6889 9.05078C19.6889 9.05078 19.6739 9.1007 19.644 9.18389C19.644 9.23381 19.614 9.28373 19.599 9.33365C19.584 9.38356 19.554 9.45012 19.524 9.53332C19.4641 9.68307 19.3891 9.83282 19.2842 9.99921C19.1793 10.1656 19.0593 10.332 18.8944 10.4984C18.7296 10.6648 18.5347 10.8312 18.3248 11.0308C18.1149 11.2305 17.8601 11.4801 17.6502 11.8295C17.4404 12.1623 17.2905 12.5783 17.2305 13.0109C17.2005 13.2272 17.1855 13.4269 17.1855 13.6432V13.6931V13.7264V13.7929C17.1855 13.7929 17.1855 13.8761 17.1855 13.9427C17.1855 14.0592 17.2005 14.1756 17.2305 14.2755C17.3055 14.6915 17.4404 15.1074 17.6652 15.4735C17.8751 15.8229 18.1599 16.1224 18.4447 16.3387C19.0443 16.7714 19.6739 16.9211 20.1986 16.9211C20.7233 16.9211 21.143 16.8046 21.4278 16.7048C21.5627 16.6549 21.6677 16.5883 21.7426 16.5551C21.8176 16.5218 21.8475 16.4885 21.8475 16.4885C21.8475 16.4885 21.8026 16.4885 21.7276 16.4885C21.6527 16.4885 21.5327 16.4885 21.3978 16.4885C21.2629 16.4885 21.083 16.4885 20.9032 16.4552C20.7083 16.4386 20.4984 16.3887 20.2885 16.3221C20.0637 16.2555 19.8388 16.1557 19.614 16.0392C19.3891 15.9061 19.1643 15.7564 18.9844 15.5567C18.8944 15.4569 18.8045 15.357 18.7296 15.2406C18.6396 15.1241 18.5796 15.0076 18.5197 14.8911C18.4597 14.758 18.4148 14.6249 18.3698 14.4918C18.3398 14.3587 18.3098 14.2089 18.2948 14.0592C18.2948 13.9926 18.2948 13.9261 18.2798 13.8595C18.2798 13.8262 18.2798 13.7763 18.2798 13.7264V13.6598V13.6266C18.2798 13.4602 18.2798 13.3104 18.3248 13.1773C18.3698 12.8944 18.4447 12.6615 18.5647 12.4285C18.6846 12.1956 18.8345 11.9626 19.0144 11.7297C19.1793 11.4967 19.3591 11.2472 19.4941 10.9809C19.629 10.7147 19.7339 10.4485 19.7639 10.1989C19.8089 9.9493 19.8089 9.73299 19.7939 9.5666C19.7939 9.4002 19.7639 9.26709 19.7339 9.18389C19.7189 9.1007 19.7039 9.05078 19.7039 9.05078H19.6889Z" fill="white"/>
<path d="M22.4613 23.0284C17.8892 23.0284 14.2016 23.4111 14.1866 23.877C14.1866 24.1432 14.1866 24.659 14.2166 24.9086C13.9318 24.842 13.632 24.8254 13.3322 24.8753C12.7476 24.9751 12.2229 25.3412 11.8781 25.8737C11.0237 27.1882 11.2935 29.0185 12.4777 29.9669C13.0174 30.3995 13.662 30.6158 14.3066 30.6158C14.8912 30.6158 15.4758 30.4328 15.9855 30.0834C16.6301 31.0152 17.4395 32.0967 18.339 32.729C18.9086 33.0618 20.5275 33.3114 22.4463 33.3114C24.3501 33.3114 25.969 33.0618 26.5387 32.729C29.0421 30.9985 30.706 27.3712 30.706 23.8603C30.706 23.3944 27.0034 23.0117 22.4313 23.0117L22.4613 23.0284ZM13.2272 28.8521C12.5977 28.3529 12.4627 27.3878 12.9125 26.7056C13.0624 26.4727 13.2872 26.3063 13.557 26.2564C13.8119 26.2064 14.0817 26.273 14.2916 26.456C14.4115 26.5559 14.4864 26.6723 14.5314 26.8221C14.7263 27.5709 14.9811 28.2863 15.3259 28.9353C14.6813 29.3679 13.8568 29.3512 13.2272 28.8521Z" fill="white"/>
</svg>
