<svg width="150" height="42" viewBox="0 0 150 42" fill="none" xmlns="http://www.w3.org/2000/svg">
<circle cx="21" cy="21" r="20.5" stroke="white"/>
<path d="M19.4798 11.9454C19.4798 11.9454 19.4348 12.0119 19.3449 12.1617C19.2699 12.3114 19.15 12.5111 19.0601 12.8273C18.9701 13.1268 18.8952 13.5427 18.9701 14.0586C19.0151 14.3082 19.105 14.591 19.2849 14.8572C19.3299 14.9238 19.3749 14.9904 19.4198 15.0403C19.4498 15.0736 19.4648 15.1068 19.4948 15.1235L19.5398 15.1734H19.5548V15.2067C19.5398 15.2067 19.5847 15.2233 19.5847 15.2233L19.6147 15.2566C19.6147 15.2566 19.6147 15.2566 19.6597 15.2899C19.7047 15.3231 19.7646 15.3564 19.7946 15.3897C19.8696 15.4396 19.9595 15.4729 20.0344 15.5062C20.664 15.7558 21.2187 15.7058 21.7883 15.6892C22.343 15.6393 22.9126 15.5561 23.4672 15.4729C23.7371 15.423 24.0219 15.3897 24.2917 15.3398C24.5615 15.3065 24.8314 15.2732 25.0862 15.2399C25.341 15.2233 25.5809 15.2233 25.7907 15.2399C25.9856 15.2566 26.1205 15.3231 26.1355 15.3398C26.1355 15.3398 26.1355 15.3398 26.1355 15.3564C26.1355 15.3564 26.1355 15.3897 26.1355 15.3231V15.3398V15.4063L26.1655 15.4396C26.1955 15.5561 26.1955 15.606 26.1655 15.7058C26.1355 15.8057 26.0606 15.9554 25.9406 16.1218C25.8057 16.2882 25.6258 16.4546 25.446 16.6376C25.0562 16.9704 24.6065 17.3032 24.1868 17.6193C23.7521 17.9521 23.3323 18.2683 22.9426 18.651C22.7477 18.8506 22.5678 19.0503 22.4029 19.3165V19.3498C22.4029 19.3498 22.4029 19.3665 22.4029 19.3831V19.4164L22.343 19.4996C22.313 19.5661 22.283 19.6493 22.253 19.7159C22.208 19.849 22.1631 19.9655 22.1481 20.0986C22.0581 20.5978 22.1031 20.9971 22.1481 21.2966C22.208 21.6128 22.283 21.8457 22.343 21.9955C22.4029 22.1452 22.4479 22.2284 22.4479 22.2284C22.4479 22.2284 22.4479 22.1452 22.4779 21.9788C22.4929 21.8124 22.5378 21.5795 22.5978 21.3132C22.6578 21.047 22.7627 20.7142 22.9276 20.4314C23.1075 20.1319 23.3023 20.0154 23.6771 19.8157C24.0369 19.6327 24.4866 19.4497 24.9813 19.2333C25.4759 19.017 26.0006 18.7841 26.5552 18.418C26.8401 18.235 27.1249 18.0187 27.4097 17.7358C27.6945 17.453 27.9943 17.0703 28.1742 16.5544C28.3691 16.0386 28.414 15.3897 28.2791 14.8572L28.2492 14.7408L28.2192 14.6576V14.591L28.1742 14.5245V14.4745C28.0993 14.3248 28.0393 14.1917 27.9643 14.0419C27.8144 13.7591 27.5896 13.5095 27.3497 13.3264C27.1099 13.1434 26.8551 13.0436 26.6302 12.9604C26.3904 12.8938 26.1805 12.8605 25.9856 12.8439C25.5809 12.8106 25.2211 12.8439 24.8913 12.8938C24.5615 12.9437 24.2467 13.0103 23.9469 13.0935C23.6471 13.1767 23.3623 13.2599 23.0775 13.3597C22.5228 13.5427 22.0132 13.7258 21.5485 13.8755C21.3086 13.9587 21.0988 14.0086 20.8889 14.0586C20.694 14.1085 20.5141 14.1251 20.3792 14.1251H20.3043C20.3043 14.1251 20.2893 14.1251 20.2743 14.1251H20.2293V14.1085C20.2293 14.1085 20.2743 14.1418 20.2443 14.1085H20.2143C20.2143 14.1085 20.1844 14.0752 20.1694 14.0752C20.1394 14.0586 20.1094 14.0419 20.0794 14.0253C19.9595 13.9587 19.8696 13.8423 19.7946 13.7091C19.6297 13.4429 19.5548 13.1268 19.5248 12.8439C19.4948 12.561 19.4798 12.3281 19.4798 12.1617C19.4798 11.9953 19.4798 11.9121 19.4798 11.9121V11.9454Z" fill="white"/>
<path d="M19.6889 9.05078C19.6889 9.05078 19.6739 9.1007 19.644 9.18389C19.644 9.23381 19.614 9.28373 19.599 9.33365C19.584 9.38356 19.554 9.45012 19.524 9.53332C19.4641 9.68307 19.3891 9.83282 19.2842 9.99921C19.1793 10.1656 19.0593 10.332 18.8944 10.4984C18.7296 10.6648 18.5347 10.8312 18.3248 11.0308C18.1149 11.2305 17.8601 11.4801 17.6502 11.8295C17.4404 12.1623 17.2905 12.5783 17.2305 13.0109C17.2005 13.2272 17.1855 13.4269 17.1855 13.6432V13.6931V13.7264V13.7929C17.1855 13.7929 17.1855 13.8761 17.1855 13.9427C17.1855 14.0592 17.2005 14.1756 17.2305 14.2755C17.3055 14.6915 17.4404 15.1074 17.6652 15.4735C17.8751 15.8229 18.1599 16.1224 18.4447 16.3387C19.0443 16.7714 19.6739 16.9211 20.1986 16.9211C20.7233 16.9211 21.143 16.8046 21.4278 16.7048C21.5627 16.6549 21.6677 16.5883 21.7426 16.5551C21.8176 16.5218 21.8475 16.4885 21.8475 16.4885C21.8475 16.4885 21.8026 16.4885 21.7276 16.4885C21.6527 16.4885 21.5327 16.4885 21.3978 16.4885C21.2629 16.4885 21.083 16.4885 20.9032 16.4552C20.7083 16.4386 20.4984 16.3887 20.2885 16.3221C20.0637 16.2555 19.8388 16.1557 19.614 16.0392C19.3891 15.9061 19.1643 15.7564 18.9844 15.5567C18.8944 15.4569 18.8045 15.357 18.7296 15.2406C18.6396 15.1241 18.5796 15.0076 18.5197 14.8911C18.4597 14.758 18.4148 14.6249 18.3698 14.4918C18.3398 14.3587 18.3098 14.2089 18.2948 14.0592C18.2948 13.9926 18.2948 13.9261 18.2798 13.8595C18.2798 13.8262 18.2798 13.7763 18.2798 13.7264V13.6598V13.6266C18.2798 13.4602 18.2798 13.3104 18.3248 13.1773C18.3698 12.8944 18.4447 12.6615 18.5647 12.4285C18.6846 12.1956 18.8345 11.9626 19.0144 11.7297C19.1793 11.4967 19.3591 11.2472 19.4941 10.9809C19.629 10.7147 19.7339 10.4485 19.7639 10.1989C19.8089 9.9493 19.8089 9.73299 19.7939 9.5666C19.7939 9.4002 19.7639 9.26709 19.7339 9.18389C19.7189 9.1007 19.7039 9.05078 19.7039 9.05078H19.6889Z" fill="white"/>
<path d="M22.4613 23.0284C17.8892 23.0284 14.2016 23.4111 14.1866 23.877C14.1866 24.1432 14.1866 24.659 14.2166 24.9086C13.9318 24.842 13.632 24.8254 13.3322 24.8753C12.7476 24.9751 12.2229 25.3412 11.8781 25.8737C11.0237 27.1882 11.2935 29.0185 12.4777 29.9669C13.0174 30.3995 13.662 30.6158 14.3066 30.6158C14.8912 30.6158 15.4758 30.4328 15.9855 30.0834C16.6301 31.0152 17.4395 32.0967 18.339 32.729C18.9086 33.0618 20.5275 33.3114 22.4463 33.3114C24.3501 33.3114 25.969 33.0618 26.5387 32.729C29.0421 30.9985 30.706 27.3712 30.706 23.8603C30.706 23.3944 27.0034 23.0117 22.4313 23.0117L22.4613 23.0284ZM13.2272 28.8521C12.5977 28.3529 12.4627 27.3878 12.9125 26.7056C13.0624 26.4727 13.2872 26.3063 13.557 26.2564C13.8119 26.2064 14.0817 26.273 14.2916 26.456C14.4115 26.5559 14.4864 26.6723 14.5314 26.8221C14.7263 27.5709 14.9811 28.2863 15.3259 28.9353C14.6813 29.3679 13.8568 29.3512 13.2272 28.8521Z" fill="white"/>
<path d="M52.688 21.416C52.688 20.328 52.9333 19.352 53.424 18.488C53.9147 17.6133 54.5813 16.9307 55.424 16.44C56.2773 15.9493 57.2213 15.704 58.256 15.704C59.472 15.704 60.5333 15.9973 61.44 16.584C62.3467 17.1707 63.008 18.0027 63.424 19.08H61.68C61.3707 18.408 60.9227 17.8907 60.336 17.528C59.76 17.1653 59.0667 16.984 58.256 16.984C57.4773 16.984 56.7787 17.1653 56.16 17.528C55.5413 17.8907 55.056 18.408 54.704 19.08C54.352 19.7413 54.176 20.52 54.176 21.416C54.176 22.3013 54.352 23.08 54.704 23.752C55.056 24.4133 55.5413 24.9253 56.16 25.288C56.7787 25.6507 57.4773 25.832 58.256 25.832C59.0667 25.832 59.76 25.656 60.336 25.304C60.9227 24.9413 61.3707 24.424 61.68 23.752H63.424C63.008 24.8187 62.3467 25.6453 61.44 26.232C60.5333 26.808 59.472 27.096 58.256 27.096C57.2213 27.096 56.2773 26.856 55.424 26.376C54.5813 25.8853 53.9147 25.208 53.424 24.344C52.9333 23.48 52.688 22.504 52.688 21.416ZM69.4154 27.144C68.594 27.144 67.8474 26.9573 67.1754 26.584C66.514 26.2107 65.9914 25.6827 65.6074 25C65.234 24.3067 65.0474 23.5067 65.0474 22.6C65.0474 21.704 65.2394 20.9147 65.6234 20.232C66.018 19.5387 66.5514 19.0107 67.2234 18.648C67.8954 18.2747 68.6474 18.088 69.4794 18.088C70.3114 18.088 71.0634 18.2747 71.7354 18.648C72.4074 19.0107 72.9354 19.5333 73.3194 20.216C73.714 20.8987 73.9114 21.6933 73.9114 22.6C73.9114 23.5067 73.7087 24.3067 73.3034 25C72.9087 25.6827 72.37 26.2107 71.6874 26.584C71.0047 26.9573 70.2474 27.144 69.4154 27.144ZM69.4154 25.864C69.938 25.864 70.4287 25.7413 70.8874 25.496C71.346 25.2507 71.714 24.8827 71.9914 24.392C72.2794 23.9013 72.4234 23.304 72.4234 22.6C72.4234 21.896 72.2847 21.2987 72.0074 20.808C71.73 20.3173 71.3674 19.9547 70.9194 19.72C70.4714 19.4747 69.986 19.352 69.4634 19.352C68.93 19.352 68.4394 19.4747 67.9914 19.72C67.554 19.9547 67.202 20.3173 66.9354 20.808C66.6687 21.2987 66.5354 21.896 66.5354 22.6C66.5354 23.3147 66.6634 23.9173 66.9194 24.408C67.186 24.8987 67.538 25.2667 67.9754 25.512C68.4127 25.7467 68.8927 25.864 69.4154 25.864ZM79.3938 19.432H77.5538V27H76.0978V19.432H74.9618V18.232H76.0978V17.608C76.0978 16.6267 76.3484 15.912 76.8498 15.464C77.3618 15.0053 78.1778 14.776 79.2977 14.776V15.992C78.6578 15.992 78.2044 16.12 77.9378 16.376C77.6818 16.6213 77.5538 17.032 77.5538 17.608V18.232H79.3938V19.432ZM84.6594 19.432H82.8194V27H81.3634V19.432H80.2274V18.232H81.3634V17.608C81.3634 16.6267 81.614 15.912 82.1154 15.464C82.6274 15.0053 83.4434 14.776 84.5634 14.776V15.992C83.9234 15.992 83.47 16.12 83.2034 16.376C82.9474 16.6213 82.8194 17.032 82.8194 17.608V18.232H84.6594V19.432ZM94.357 22.28C94.357 22.5573 94.341 22.8507 94.309 23.16H87.301C87.3543 24.024 87.6477 24.7013 88.181 25.192C88.725 25.672 89.381 25.912 90.149 25.912C90.7783 25.912 91.301 25.768 91.717 25.48C92.1437 25.1813 92.4423 24.7867 92.613 24.296H94.181C93.9463 25.1387 93.477 25.8267 92.773 26.36C92.069 26.8827 91.1943 27.144 90.149 27.144C89.317 27.144 88.5703 26.9573 87.909 26.584C87.2583 26.2107 86.7463 25.6827 86.373 25C85.9997 24.3067 85.813 23.5067 85.813 22.6C85.813 21.6933 85.9943 20.8987 86.357 20.216C86.7197 19.5333 87.2263 19.0107 87.877 18.648C88.5383 18.2747 89.2957 18.088 90.149 18.088C90.981 18.088 91.717 18.2693 92.357 18.632C92.997 18.9947 93.4877 19.496 93.829 20.136C94.181 20.7653 94.357 21.48 94.357 22.28ZM92.853 21.976C92.853 21.4213 92.7303 20.9467 92.485 20.552C92.2397 20.1467 91.9037 19.8427 91.477 19.64C91.061 19.4267 90.597 19.32 90.085 19.32C89.349 19.32 88.7197 19.5547 88.197 20.024C87.685 20.4933 87.3917 21.144 87.317 21.976H92.853ZM104.279 22.28C104.279 22.5573 104.263 22.8507 104.231 23.16H97.2229C97.2762 24.024 97.5695 24.7013 98.1029 25.192C98.6469 25.672 99.3029 25.912 100.071 25.912C100.7 25.912 101.223 25.768 101.639 25.48C102.066 25.1813 102.364 24.7867 102.535 24.296H104.103C103.868 25.1387 103.399 25.8267 102.695 26.36C101.991 26.8827 101.116 27.144 100.071 27.144C99.2389 27.144 98.4922 26.9573 97.8309 26.584C97.1802 26.2107 96.6682 25.6827 96.2949 25C95.9215 24.3067 95.7349 23.5067 95.7349 22.6C95.7349 21.6933 95.9162 20.8987 96.2789 20.216C96.6415 19.5333 97.1482 19.0107 97.7989 18.648C98.4602 18.2747 99.2175 18.088 100.071 18.088C100.903 18.088 101.639 18.2693 102.279 18.632C102.919 18.9947 103.41 19.496 103.751 20.136C104.103 20.7653 104.279 21.48 104.279 22.28ZM102.775 21.976C102.775 21.4213 102.652 20.9467 102.407 20.552C102.162 20.1467 101.826 19.8427 101.399 19.64C100.983 19.4267 100.519 19.32 100.007 19.32C99.2709 19.32 98.6415 19.5547 98.1189 20.024C97.6069 20.4933 97.3135 21.144 97.2389 21.976H102.775ZM114.002 27.112C113.266 27.112 112.605 26.984 112.018 26.728C111.442 26.4613 110.989 26.0987 110.658 25.64C110.328 25.1707 110.157 24.632 110.146 24.024H111.698C111.752 24.5467 111.965 24.9893 112.338 25.352C112.722 25.704 113.277 25.88 114.002 25.88C114.696 25.88 115.24 25.7093 115.634 25.368C116.04 25.016 116.242 24.568 116.242 24.024C116.242 23.5973 116.125 23.2507 115.89 22.984C115.656 22.7173 115.362 22.5147 115.01 22.376C114.658 22.2373 114.184 22.088 113.586 21.928C112.85 21.736 112.258 21.544 111.81 21.352C111.373 21.16 110.994 20.8613 110.674 20.456C110.365 20.04 110.21 19.4853 110.21 18.792C110.21 18.184 110.365 17.6453 110.674 17.176C110.984 16.7067 111.416 16.344 111.97 16.088C112.536 15.832 113.181 15.704 113.906 15.704C114.952 15.704 115.805 15.9653 116.466 16.488C117.138 17.0107 117.517 17.704 117.602 18.568H116.002C115.949 18.1413 115.725 17.768 115.33 17.448C114.936 17.1173 114.413 16.952 113.762 16.952C113.154 16.952 112.658 17.112 112.274 17.432C111.89 17.7413 111.698 18.1787 111.698 18.744C111.698 19.1493 111.81 19.48 112.034 19.736C112.269 19.992 112.552 20.1893 112.882 20.328C113.224 20.456 113.698 20.6053 114.306 20.776C115.042 20.9787 115.634 21.1813 116.082 21.384C116.53 21.576 116.914 21.88 117.234 22.296C117.554 22.7013 117.714 23.256 117.714 23.96C117.714 24.504 117.57 25.016 117.282 25.496C116.994 25.976 116.568 26.3653 116.002 26.664C115.437 26.9627 114.77 27.112 114.002 27.112ZM124.209 18.072C124.87 18.072 125.468 18.216 126.001 18.504C126.534 18.7813 126.95 19.2027 127.249 19.768C127.558 20.3333 127.713 21.0213 127.713 21.832V27H126.273V22.04C126.273 21.1653 126.054 20.4987 125.617 20.04C125.18 19.5707 124.582 19.336 123.825 19.336C123.057 19.336 122.444 19.576 121.985 20.056C121.537 20.536 121.313 21.2347 121.313 22.152V27H119.857V15.16H121.313V19.48C121.601 19.032 121.996 18.6853 122.497 18.44C123.009 18.1947 123.58 18.072 124.209 18.072ZM133.915 27.144C133.094 27.144 132.347 26.9573 131.675 26.584C131.014 26.2107 130.491 25.6827 130.107 25C129.734 24.3067 129.547 23.5067 129.547 22.6C129.547 21.704 129.739 20.9147 130.123 20.232C130.518 19.5387 131.051 19.0107 131.723 18.648C132.395 18.2747 133.147 18.088 133.979 18.088C134.811 18.088 135.563 18.2747 136.235 18.648C136.907 19.0107 137.435 19.5333 137.819 20.216C138.214 20.8987 138.411 21.6933 138.411 22.6C138.411 23.5067 138.209 24.3067 137.803 25C137.409 25.6827 136.87 26.2107 136.187 26.584C135.505 26.9573 134.747 27.144 133.915 27.144ZM133.915 25.864C134.438 25.864 134.929 25.7413 135.387 25.496C135.846 25.2507 136.214 24.8827 136.491 24.392C136.779 23.9013 136.923 23.304 136.923 22.6C136.923 21.896 136.785 21.2987 136.507 20.808C136.23 20.3173 135.867 19.9547 135.419 19.72C134.971 19.4747 134.486 19.352 133.963 19.352C133.43 19.352 132.939 19.4747 132.491 19.72C132.054 19.9547 131.702 20.3173 131.435 20.808C131.169 21.2987 131.035 21.896 131.035 22.6C131.035 23.3147 131.163 23.9173 131.419 24.408C131.686 24.8987 132.038 25.2667 132.475 25.512C132.913 25.7467 133.393 25.864 133.915 25.864ZM141.782 19.848C142.07 19.3467 142.496 18.9307 143.062 18.6C143.638 18.2587 144.304 18.088 145.062 18.088C145.84 18.088 146.544 18.2747 147.174 18.648C147.814 19.0213 148.315 19.5493 148.678 20.232C149.04 20.904 149.222 21.688 149.222 22.584C149.222 23.4693 149.04 24.2587 148.678 24.952C148.315 25.6453 147.814 26.184 147.174 26.568C146.544 26.952 145.84 27.144 145.062 27.144C144.315 27.144 143.654 26.9787 143.078 26.648C142.512 26.3067 142.08 25.8853 141.782 25.384V31.16H140.326V18.232H141.782V19.848ZM147.734 22.584C147.734 21.9227 147.6 21.3467 147.334 20.856C147.067 20.3653 146.704 19.992 146.246 19.736C145.798 19.48 145.302 19.352 144.758 19.352C144.224 19.352 143.728 19.4853 143.27 19.752C142.822 20.008 142.459 20.3867 142.182 20.888C141.915 21.3787 141.782 21.9493 141.782 22.6C141.782 23.2613 141.915 23.8427 142.182 24.344C142.459 24.8347 142.822 25.2133 143.27 25.48C143.728 25.736 144.224 25.864 144.758 25.864C145.302 25.864 145.798 25.736 146.246 25.48C146.704 25.2133 147.067 24.8347 147.334 24.344C147.6 23.8427 147.734 23.256 147.734 22.584Z" fill="white"/>
</svg>
