<svg width="328" height="40" viewBox="0 0 328 40" fill="none" xmlns="http://www.w3.org/2000/svg">
<g clip-path="url(#clip0_25_11881)">
<path d="M0 5C0 2.23858 2.23858 0 5 0H55C57.7614 0 60 2.23858 60 5V35C60 37.7614 57.7614 40 55 40H5C2.23858 40 0 37.7614 0 35V5Z" fill="white"/>
<path d="M51.6374 12.5438H48.4942C47.5439 12.5438 46.8129 12.8362 46.3743 13.7865L40.3801 27.4561H44.6199C44.6199 27.4561 45.3509 25.6286 45.4971 25.19C45.9357 25.19 50.1023 25.19 50.6871 25.19C50.8333 25.7017 51.1988 27.383 51.1988 27.383H55L51.6374 12.5438ZM46.6667 22.1198C47.0322 21.2426 48.2749 17.9531 48.2749 17.9531C48.2749 18.0262 48.6404 17.0759 48.7866 16.5642L49.079 17.88C49.079 17.88 49.883 21.4619 50.0292 22.1929H46.6667V22.1198Z" fill="#3362AB"/>
<path d="M40.6726 22.5584C40.6726 25.6286 37.8948 27.6754 33.582 27.6754C31.7545 27.6754 30.0001 27.3099 29.0498 26.8713L29.6346 23.5087L30.1463 23.728C31.4621 24.3128 32.3393 24.5321 33.9475 24.5321C35.1171 24.5321 36.3597 24.0935 36.3597 23.0701C36.3597 22.4122 35.848 21.9736 34.2399 21.2427C32.7048 20.5117 30.658 19.3421 30.658 17.2222C30.658 14.2982 33.5089 12.3245 37.5293 12.3245C39.0644 12.3245 40.3802 12.6169 41.1843 12.9824L40.5995 16.1988L40.3071 15.9064C39.5761 15.614 38.6258 15.3216 37.2369 15.3216C35.7018 15.3947 34.9709 16.0526 34.9709 16.6374C34.9709 17.2953 35.848 17.807 37.2369 18.4649C39.5761 19.5614 40.6726 20.8041 40.6726 22.5584Z" fill="#3362AB"/>
<path d="M5 12.6901L5.0731 12.3977H11.3596C12.2368 12.3977 12.8947 12.6901 13.114 13.6404L14.5029 20.2193C13.114 16.7105 9.89766 13.8597 5 12.6901Z" fill="#F9B50B"/>
<path d="M23.348 12.5438L16.9883 27.383H12.6755L9.02051 14.9561C11.6521 16.6374 13.8451 19.269 14.6492 21.0964L15.0878 22.6315L19.0351 12.4707H23.348V12.5438Z" fill="#3362AB"/>
<path d="M25.0292 12.4707H29.0497L26.4912 27.383H22.4707L25.0292 12.4707Z" fill="#3362AB"/>
</g>
<rect x="0.5" y="0.5" width="59" height="39" rx="4.5" stroke="#E2E4EB"/>
<g clip-path="url(#clip1_25_11881)">
<path d="M79.5 5C79.5 2.51472 81.5147 0.5 84 0.5H134C136.485 0.5 138.5 2.51472 138.5 5V35C138.5 37.4853 136.485 39.5 134 39.5H84C81.5147 39.5 79.5 37.4853 79.5 35V5Z" fill="white" stroke="#E2E4EB"/>
<path d="M115.26 8.15922L102.349 8.20361L102.74 31.8409L115.651 31.7965L115.26 8.15922Z" fill="#FF5F00"/>
<path d="M103.199 20.0699C103.119 15.2623 105.272 10.9905 108.646 8.21965C106.099 6.22159 102.907 5.02009 99.4469 5.03194C91.2491 5.06002 84.7285 11.8134 84.8668 20.1327C85.0051 28.452 91.7493 35.16 99.9471 35.1319C103.407 35.1201 106.559 33.8968 109.039 31.8816C105.574 29.1759 103.278 24.8776 103.199 20.0699Z" fill="#EB001B"/>
<path d="M133.133 19.8674C133.272 28.1867 126.751 34.9401 118.553 34.9681C115.093 34.98 111.901 33.7785 109.354 31.7804C112.769 29.0094 114.881 24.7378 114.802 19.9301C114.722 15.1225 112.426 10.866 108.961 8.11852C111.441 6.10325 114.593 4.88002 118.053 4.86817C126.251 4.84009 132.996 11.5899 133.133 19.8674Z" fill="#F79E1B"/>
</g>
<rect x="158.5" y="0.5" width="169" height="39" rx="4.5" fill="white"/>
<rect x="158.5" y="0.5" width="169" height="39" rx="4.5" stroke="#E2E4EB"/>
<path d="M187.577 20.463C187.577 19.579 187.781 18.786 188.188 18.084C188.604 17.382 189.163 16.836 189.865 16.446C190.576 16.0473 191.352 15.848 192.192 15.848C193.154 15.848 194.008 16.0863 194.753 16.563C195.507 17.031 196.053 17.6983 196.391 18.565H194.61C194.376 18.0883 194.051 17.733 193.635 17.499C193.219 17.265 192.738 17.148 192.192 17.148C191.594 17.148 191.061 17.2823 190.593 17.551C190.125 17.8197 189.757 18.2053 189.488 18.708C189.228 19.2107 189.098 19.7957 189.098 20.463C189.098 21.1303 189.228 21.7153 189.488 22.218C189.757 22.7207 190.125 23.1107 190.593 23.388C191.061 23.6567 191.594 23.791 192.192 23.791C192.738 23.791 193.219 23.674 193.635 23.44C194.051 23.206 194.376 22.8507 194.61 22.374H196.391C196.053 23.2407 195.507 23.908 194.753 24.376C194.008 24.844 193.154 25.078 192.192 25.078C191.343 25.078 190.567 24.883 189.865 24.493C189.163 24.0943 188.604 23.544 188.188 22.842C187.781 22.14 187.577 21.347 187.577 20.463ZM197.632 21.386C197.632 20.6667 197.779 20.0297 198.074 19.475C198.377 18.9203 198.785 18.4913 199.296 18.188C199.816 17.876 200.388 17.72 201.012 17.72C201.575 17.72 202.065 17.8327 202.481 18.058C202.906 18.2747 203.244 18.5477 203.495 18.877V17.837H204.99V25H203.495V23.934C203.244 24.272 202.901 24.5537 202.468 24.779C202.035 25.0043 201.541 25.117 200.986 25.117C200.371 25.117 199.807 24.961 199.296 24.649C198.785 24.3283 198.377 23.8863 198.074 23.323C197.779 22.751 197.632 22.1053 197.632 21.386ZM203.495 21.412C203.495 20.918 203.391 20.489 203.183 20.125C202.984 19.761 202.719 19.4837 202.39 19.293C202.061 19.1023 201.705 19.007 201.324 19.007C200.943 19.007 200.587 19.1023 200.258 19.293C199.929 19.475 199.66 19.748 199.452 20.112C199.253 20.4673 199.153 20.892 199.153 21.386C199.153 21.88 199.253 22.3133 199.452 22.686C199.66 23.0587 199.929 23.3447 200.258 23.544C200.596 23.7347 200.951 23.83 201.324 23.83C201.705 23.83 202.061 23.7347 202.39 23.544C202.719 23.3533 202.984 23.076 203.183 22.712C203.391 22.3393 203.495 21.906 203.495 21.412ZM209.536 25.117C208.973 25.117 208.466 25.0173 208.015 24.818C207.573 24.61 207.222 24.3327 206.962 23.986C206.702 23.6307 206.564 23.2363 206.546 22.803H208.08C208.106 23.1063 208.249 23.362 208.509 23.57C208.778 23.7693 209.112 23.869 209.51 23.869C209.926 23.869 210.247 23.791 210.472 23.635C210.706 23.4703 210.823 23.2623 210.823 23.011C210.823 22.7423 210.693 22.543 210.433 22.413C210.182 22.283 209.779 22.14 209.224 21.984C208.687 21.8367 208.249 21.6937 207.911 21.555C207.573 21.4163 207.279 21.204 207.027 20.918C206.785 20.632 206.663 20.255 206.663 19.787C206.663 19.4057 206.776 19.059 207.001 18.747C207.227 18.4263 207.547 18.175 207.963 17.993C208.388 17.811 208.873 17.72 209.419 17.72C210.234 17.72 210.888 17.928 211.382 18.344C211.885 18.7513 212.154 19.3103 212.188 20.021H210.706C210.68 19.7003 210.55 19.4447 210.316 19.254C210.082 19.0633 209.766 18.968 209.367 18.968C208.977 18.968 208.678 19.0417 208.47 19.189C208.262 19.3363 208.158 19.5313 208.158 19.774C208.158 19.9647 208.228 20.125 208.366 20.255C208.505 20.385 208.674 20.489 208.873 20.567C209.073 20.6363 209.367 20.7273 209.757 20.84C210.277 20.9787 210.702 21.1217 211.031 21.269C211.369 21.4077 211.66 21.6157 211.902 21.893C212.145 22.1703 212.271 22.5387 212.279 22.998C212.279 23.4053 212.167 23.7693 211.941 24.09C211.716 24.4107 211.395 24.662 210.979 24.844C210.572 25.026 210.091 25.117 209.536 25.117ZM217.586 17.72C218.132 17.72 218.617 17.837 219.042 18.071C219.475 18.305 219.813 18.6517 220.056 19.111C220.307 19.5703 220.433 20.125 220.433 20.775V25H218.964V20.996C218.964 20.3547 218.803 19.865 218.483 19.527C218.162 19.1803 217.724 19.007 217.17 19.007C216.615 19.007 216.173 19.1803 215.844 19.527C215.523 19.865 215.363 20.3547 215.363 20.996V25H213.881V15.38H215.363V18.669C215.614 18.3657 215.93 18.1317 216.312 17.967C216.702 17.8023 217.126 17.72 217.586 17.72ZM229.821 25.091C228.98 25.091 228.205 24.896 227.494 24.506C226.792 24.1073 226.233 23.557 225.817 22.855C225.41 22.1443 225.206 21.347 225.206 20.463C225.206 19.579 225.41 18.786 225.817 18.084C226.233 17.382 226.792 16.836 227.494 16.446C228.205 16.0473 228.98 15.848 229.821 15.848C230.67 15.848 231.446 16.0473 232.148 16.446C232.859 16.836 233.418 17.382 233.825 18.084C234.232 18.786 234.436 19.579 234.436 20.463C234.436 21.347 234.232 22.1443 233.825 22.855C233.418 23.557 232.859 24.1073 232.148 24.506C231.446 24.896 230.67 25.091 229.821 25.091ZM229.821 23.804C230.419 23.804 230.952 23.6697 231.42 23.401C231.888 23.1237 232.252 22.7337 232.512 22.231C232.781 21.7197 232.915 21.1303 232.915 20.463C232.915 19.7957 232.781 19.2107 232.512 18.708C232.252 18.2053 231.888 17.8197 231.42 17.551C230.952 17.2823 230.419 17.148 229.821 17.148C229.223 17.148 228.69 17.2823 228.222 17.551C227.754 17.8197 227.386 18.2053 227.117 18.708C226.857 19.2107 226.727 19.7957 226.727 20.463C226.727 21.1303 226.857 21.7197 227.117 22.231C227.386 22.7337 227.754 23.1237 228.222 23.401C228.69 23.6697 229.223 23.804 229.821 23.804ZM239.508 17.72C240.072 17.72 240.574 17.837 241.016 18.071C241.467 18.305 241.818 18.6517 242.069 19.111C242.321 19.5703 242.446 20.125 242.446 20.775V25H240.977V20.996C240.977 20.3547 240.817 19.865 240.496 19.527C240.176 19.1803 239.738 19.007 239.183 19.007C238.629 19.007 238.187 19.1803 237.857 19.527C237.537 19.865 237.376 20.3547 237.376 20.996V25H235.894V17.837H237.376V18.656C237.619 18.3613 237.927 18.1317 238.299 17.967C238.681 17.8023 239.084 17.72 239.508 17.72ZM250.665 15.965C251.627 15.965 252.467 16.1513 253.187 16.524C253.915 16.888 254.474 17.4167 254.864 18.11C255.262 18.7947 255.462 19.5963 255.462 20.515C255.462 21.4337 255.262 22.231 254.864 22.907C254.474 23.583 253.915 24.103 253.187 24.467C252.467 24.8223 251.627 25 250.665 25H247.714V15.965H250.665ZM250.665 23.791C251.722 23.791 252.532 23.505 253.096 22.933C253.659 22.361 253.941 21.555 253.941 20.515C253.941 19.4663 253.659 18.6473 253.096 18.058C252.532 17.4687 251.722 17.174 250.665 17.174H249.196V23.791H250.665ZM263.496 21.243C263.496 21.5117 263.478 21.7543 263.444 21.971H257.971C258.014 22.543 258.226 23.0023 258.608 23.349C258.989 23.6957 259.457 23.869 260.012 23.869C260.809 23.869 261.372 23.5353 261.702 22.868H263.301C263.084 23.5267 262.69 24.0683 262.118 24.493C261.554 24.909 260.852 25.117 260.012 25.117C259.327 25.117 258.712 24.9653 258.166 24.662C257.628 24.35 257.204 23.9167 256.892 23.362C256.588 22.7987 256.437 22.1487 256.437 21.412C256.437 20.6753 256.584 20.0297 256.879 19.475C257.182 18.9117 257.602 18.4783 258.14 18.175C258.686 17.8717 259.31 17.72 260.012 17.72C260.688 17.72 261.29 17.8673 261.819 18.162C262.347 18.4567 262.759 18.8727 263.054 19.41C263.348 19.9387 263.496 20.5497 263.496 21.243ZM261.949 20.775C261.94 20.229 261.745 19.7913 261.364 19.462C260.982 19.1327 260.51 18.968 259.947 18.968C259.435 18.968 258.998 19.1327 258.634 19.462C258.27 19.7827 258.053 20.2203 257.984 20.775H261.949ZM266.436 15.38V25H264.954V15.38H266.436ZM269.136 16.888C268.867 16.888 268.642 16.797 268.46 16.615C268.278 16.433 268.187 16.2077 268.187 15.939C268.187 15.6703 268.278 15.445 268.46 15.263C268.642 15.081 268.867 14.99 269.136 14.99C269.396 14.99 269.617 15.081 269.799 15.263C269.981 15.445 270.072 15.6703 270.072 15.939C270.072 16.2077 269.981 16.433 269.799 16.615C269.617 16.797 269.396 16.888 269.136 16.888ZM269.864 17.837V25H268.382V17.837H269.864ZM274.578 23.674L276.606 17.837H278.179L275.449 25H273.681L270.964 17.837H272.55L274.578 23.674ZM285.865 21.243C285.865 21.5117 285.847 21.7543 285.813 21.971H280.34C280.383 22.543 280.595 23.0023 280.977 23.349C281.358 23.6957 281.826 23.869 282.381 23.869C283.178 23.869 283.741 23.5353 284.071 22.868H285.67C285.453 23.5267 285.059 24.0683 284.487 24.493C283.923 24.909 283.221 25.117 282.381 25.117C281.696 25.117 281.081 24.9653 280.535 24.662C279.997 24.35 279.573 23.9167 279.261 23.362C278.957 22.7987 278.806 22.1487 278.806 21.412C278.806 20.6753 278.953 20.0297 279.248 19.475C279.551 18.9117 279.971 18.4783 280.509 18.175C281.055 17.8717 281.679 17.72 282.381 17.72C283.057 17.72 283.659 17.8673 284.188 18.162C284.716 18.4567 285.128 18.8727 285.423 19.41C285.717 19.9387 285.865 20.5497 285.865 21.243ZM284.318 20.775C284.309 20.229 284.114 19.7913 283.733 19.462C283.351 19.1327 282.879 18.968 282.316 18.968C281.804 18.968 281.367 19.1327 281.003 19.462C280.639 19.7827 280.422 20.2203 280.353 20.775H284.318ZM288.805 18.877C289.022 18.513 289.308 18.2313 289.663 18.032C290.027 17.824 290.456 17.72 290.95 17.72V19.254H290.573C289.992 19.254 289.55 19.4013 289.247 19.696C288.952 19.9907 288.805 20.502 288.805 21.23V25H287.323V17.837H288.805V18.877ZM298.76 17.837L294.366 28.367H292.832L294.288 24.883L291.467 17.837H293.118L295.133 23.297L297.226 17.837H298.76Z" fill="#101420"/>
<defs>
<clipPath id="clip0_25_11881">
<rect width="60" height="40" rx="5" fill="white"/>
</clipPath>
<clipPath id="clip1_25_11881">
<rect width="60" height="40" fill="white" transform="translate(79)"/>
</clipPath>
</defs>
</svg>
